<svg width="1067" height="1010" viewBox="0 0 1067 1010" fill="none" xmlns="http://www.w3.org/2000/svg">
<mask id="mask0_83_516" style="mask-type:alpha" maskUnits="userSpaceOnUse" x="0" y="0" width="1454" height="1010">
<path fill-rule="evenodd" clip-rule="evenodd" d="M1150.14 525.266L1114.97 464.463L1160.13 386.388H1069.8L846.282 0H1454L1150.14 525.266ZM918.047 386.388C913.538 452.192 890.033 512.786 852.963 562.751L750.94 386.388H918.047ZM903.809 650.646L852.963 562.751C791.675 645.36 693.306 698.914 582.406 698.914C540.307 698.914 500.015 691.197 462.871 677.103L540.591 542.754H298.1C265.087 490.812 245.97 429.203 245.97 363.139C245.97 177.696 396.597 27.364 582.406 27.364C768.214 27.364 918.841 177.696 918.841 363.139C918.841 370.954 918.574 378.707 918.047 386.388H1069.8L1114.97 464.463L1012.12 642.25C998.817 638.945 984.898 637.191 970.569 637.191C946.886 637.191 924.325 641.982 903.809 650.646ZM903.809 650.646L955.536 740.063L1012.12 642.25C1045.27 650.485 1074.6 668.349 1096.95 692.691L970.298 808.229L1096.21 924.036C1064.92 957.674 1020.21 978.727 970.569 978.727C875.966 978.727 799.275 902.271 799.275 807.959C799.275 737.257 842.374 676.59 903.809 650.646ZM298.1 542.754H0L270.295 1010L462.871 677.103C394.479 651.152 336.761 603.581 298.1 542.754Z" fill="black"/>
</mask>
<g mask="url(#mask0_83_516)">
<path d="M1096.71 692.485L970.058 808.023L1095.97 923.83C1064.68 957.469 1019.97 978.521 970.329 978.521C875.726 978.521 799.035 902.066 799.035 807.753C799.035 713.441 875.726 636.985 970.329 636.985C1020.37 636.985 1065.4 658.376 1096.71 692.485Z" fill="#20C4F4"/>
<path d="M270.055 1009.79L-0.23999 542.548H540.351L270.055 1009.79Z" fill="#20C4F4"/>
<path d="M955.296 739.857L750.7 386.183L1159.89 386.183L955.296 739.857Z" fill="#20C4F4"/>
<path d="M1149.9 525.06L846.042 -0.20575L1453.76 -0.20575L1149.9 525.06Z" fill="#20C4F4"/>
<ellipse cx="582.166" cy="362.933" rx="336.436" ry="335.775" fill="#20C4F4"/>
</g>
</svg>
