<svg width="21" height="21" viewBox="0 0 21 21" fill="none" xmlns="http://www.w3.org/2000/svg">
<path d="M2.25 19.5H5.625V16.125H2.25V19.5ZM6.375 19.5H10.125V16.125H6.375V19.5ZM2.25 15.375H5.625V11.625H2.25V15.375ZM6.375 15.375H10.125V11.625H6.375V15.375ZM2.25 10.875H5.625V7.5H2.25V10.875ZM10.875 19.5H14.625V16.125H10.875V19.5ZM6.375 10.875H10.125V7.5H6.375V10.875ZM15.375 19.5H18.75V16.125H15.375V19.5ZM10.875 15.375H14.625V11.625H10.875V15.375ZM6.75 5.25V1.875C6.75 1.77344 6.71289 1.68555 6.63867 1.61133C6.56445 1.53711 6.47656 1.5 6.375 1.5H5.625C5.52344 1.5 5.43555 1.53711 5.36133 1.61133C5.28711 1.68555 5.25 1.77344 5.25 1.875V5.25C5.25 5.35156 5.28711 5.43945 5.36133 5.51367C5.43555 5.58789 5.52344 5.625 5.625 5.625H6.375C6.47656 5.625 6.56445 5.58789 6.63867 5.51367C6.71289 5.43945 6.75 5.35156 6.75 5.25ZM15.375 15.375H18.75V11.625H15.375V15.375ZM10.875 10.875H14.625V7.5H10.875V10.875ZM15.375 10.875H18.75V7.5H15.375V10.875ZM15.75 5.25V1.875C15.75 1.77344 15.7129 1.68555 15.6387 1.61133C15.5645 1.53711 15.4766 1.5 15.375 1.5H14.625C14.5234 1.5 14.4355 1.53711 14.3613 1.61133C14.2871 1.68555 14.25 1.77344 14.25 1.875V5.25C14.25 5.35156 14.2871 5.43945 14.3613 5.51367C14.4355 5.58789 14.5234 5.625 14.625 5.625H15.375C15.4766 5.625 15.5645 5.58789 15.6387 5.51367C15.7129 5.43945 15.75 5.35156 15.75 5.25ZM20.25 4.5V19.5C20.25 19.9062 20.1016 20.2578 19.8047 20.5547C19.5078 20.8516 19.1562 21 18.75 21H2.25C1.84375 21 1.49219 20.8516 1.19531 20.5547C0.898438 20.2578 0.75 19.9062 0.75 19.5V4.5C0.75 4.09375 0.898438 3.74219 1.19531 3.44531C1.49219 3.14844 1.84375 3 2.25 3H3.75V1.875C3.75 1.35938 3.93359 0.917969 4.30078 0.550781C4.66797 0.183594 5.10938 0 5.625 0H6.375C6.89062 0 7.33203 0.183594 7.69922 0.550781C8.06641 0.917969 8.25 1.35938 8.25 1.875V3H12.75V1.875C12.75 1.35938 12.9336 0.917969 13.3008 0.550781C13.668 0.183594 14.1094 0 14.625 0H15.375C15.8906 0 16.332 0.183594 16.6992 0.550781C17.0664 0.917969 17.25 1.35938 17.25 1.875V3H18.75C19.1562 3 19.5078 3.14844 19.8047 3.44531C20.1016 3.74219 20.25 4.09375 20.25 4.5Z" fill="#1A1A1A"/>
</svg>
