<svg width="21" height="23" viewBox="0 0 21 23" fill="none" xmlns="http://www.w3.org/2000/svg">
<path d="M19.4843 6.10938C19.6041 6.22917 19.7239 6.38318 19.8437 6.57143H13.7857V0.513393C13.9739 0.633185 14.1279 0.752976 14.2477 0.872768L19.4843 6.10938ZM13.375 8.21429H20.3571V21.7679C20.3571 22.1101 20.2373 22.401 19.9977 22.6406C19.7582 22.8802 19.4672 23 19.125 23H1.87497C1.5327 23 1.24178 22.8802 1.0022 22.6406C0.762614 22.401 0.642822 22.1101 0.642822 21.7679V1.23214C0.642822 0.889881 0.762614 0.598958 1.0022 0.359375C1.24178 0.119792 1.5327 0 1.87497 0H12.1428V6.98214C12.1428 7.3244 12.2626 7.61533 12.5022 7.85491C12.7418 8.09449 13.0327 8.21429 13.375 8.21429ZM15.4285 17.6607V16.8393C15.4285 16.7195 15.39 16.6211 15.313 16.5441C15.236 16.4671 15.1376 16.4286 15.0178 16.4286H5.98211C5.86232 16.4286 5.76392 16.4671 5.68691 16.5441C5.6099 16.6211 5.57139 16.7195 5.57139 16.8393V17.6607C5.57139 17.7805 5.6099 17.8789 5.68691 17.9559C5.76392 18.0329 5.86232 18.0714 5.98211 18.0714H15.0178C15.1376 18.0714 15.236 18.0329 15.313 17.9559C15.39 17.8789 15.4285 17.7805 15.4285 17.6607ZM15.4285 14.375V13.5536C15.4285 13.4338 15.39 13.3354 15.313 13.2584C15.236 13.1814 15.1376 13.1429 15.0178 13.1429H5.98211C5.86232 13.1429 5.76392 13.1814 5.68691 13.2584C5.6099 13.3354 5.57139 13.4338 5.57139 13.5536V14.375C5.57139 14.4948 5.6099 14.5932 5.68691 14.6702C5.76392 14.7472 5.86232 14.7857 5.98211 14.7857H15.0178C15.1376 14.7857 15.236 14.7472 15.313 14.6702C15.39 14.5932 15.4285 14.4948 15.4285 14.375ZM15.4285 11.0893V10.2679C15.4285 10.1481 15.39 10.0497 15.313 9.97266C15.236 9.89565 15.1376 9.85714 15.0178 9.85714H5.98211C5.86232 9.85714 5.76392 9.89565 5.68691 9.97266C5.6099 10.0497 5.57139 10.1481 5.57139 10.2679V11.0893C5.57139 11.2091 5.6099 11.3075 5.68691 11.3845C5.76392 11.4615 5.86232 11.5 5.98211 11.5H15.0178C15.1376 11.5 15.236 11.4615 15.313 11.3845C15.39 11.3075 15.4285 11.2091 15.4285 11.0893Z" fill="#1A1A1A"/>
</svg>
